<svg width="187" height="63" viewBox="0 0 445 150" fill="none" xmlns="http://www.w3.org/2000/svg">
<path fill-rule="evenodd" clip-rule="evenodd" d="M143.998 64.0641C142.776 62.5758 141.275 61.4329 139.494 60.6356C137.714 59.8383 135.655 59.4397 133.317 59.4397C130.978 59.4397 128.813 59.8915 126.82 60.7951C124.827 61.6987 123.1 62.9611 121.638 64.5823C120.177 66.2035 119.034 68.1304 118.211 70.3628C117.387 72.5953 116.975 75.0138 116.975 77.6184C116.975 80.2761 117.387 82.7079 118.211 84.9138C119.034 87.1197 120.164 89.0332 121.599 90.6544C123.033 92.2756 124.721 93.538 126.66 94.4417C128.6 95.3453 130.686 95.7971 132.918 95.7971C135.469 95.7971 137.727 95.2655 139.694 94.2025C141.66 93.1394 143.281 91.6511 144.556 89.7375L154.919 97.4714C152.528 100.82 149.499 103.292 145.832 104.886C142.165 106.481 138.392 107.278 134.512 107.278C130.101 107.278 126.036 106.587 122.316 105.205C118.596 103.823 115.381 101.843 112.671 99.2654C109.96 96.6874 107.848 93.5646 106.333 89.897C104.819 86.2293 104.061 82.1365 104.061 77.6184C104.061 73.1003 104.819 69.0074 106.333 65.3398C107.848 61.6721 109.96 58.5493 112.671 55.9714C115.381 53.3934 118.596 51.4134 122.316 50.0314C126.036 48.6494 130.101 47.9584 134.512 47.9584C136.107 47.9584 137.767 48.1045 139.494 48.3969C141.222 48.6892 142.922 49.1543 144.596 49.7922C146.27 50.43 147.878 51.2805 149.419 52.3436C150.96 53.4067 152.342 54.7089 153.564 56.2504L143.998 64.0641ZM160.348 45.5682H172.305V105.845H160.348V45.5682ZM205.219 100.98H205.059C203.731 103.053 201.964 104.541 199.758 105.445C197.553 106.348 195.228 106.8 192.783 106.8C190.976 106.8 189.236 106.547 187.562 106.042C185.888 105.538 184.413 104.78 183.138 103.77C181.862 102.76 180.853 101.511 180.109 100.023C179.365 98.5345 178.993 96.807 178.993 94.8403C178.993 92.6078 179.404 90.7208 180.228 89.1794C181.052 87.6379 182.168 86.3622 183.576 85.3523C184.984 84.3423 186.592 83.5583 188.399 83.0002C190.206 82.4421 192.079 82.0302 194.019 81.7644C195.958 81.4986 197.898 81.3391 199.838 81.286C201.778 81.2328 203.571 81.2063 205.219 81.2063C205.219 79.0801 204.461 77.3925 202.947 76.1433C201.432 74.8942 199.639 74.2697 197.566 74.2697C195.6 74.2697 193.806 74.6816 192.185 75.5055C190.564 76.3294 189.116 77.4589 187.841 78.8941L181.464 72.3561C183.696 70.2831 186.3 68.7284 189.276 67.6918C192.252 66.6553 195.334 66.1371 198.523 66.1371C202.03 66.1371 204.913 66.5756 207.172 67.4527C209.43 68.3297 211.237 69.6187 212.592 71.3196C213.947 73.0205 214.891 75.1068 215.422 77.5785C215.953 80.0502 216.219 82.9072 216.219 86.1496V105.843H205.219V100.98ZM202.278 88.8617C201.375 88.8617 200.246 88.9016 198.89 88.9813C197.535 89.061 196.233 89.287 194.984 89.659C193.736 90.0311 192.673 90.5892 191.796 91.3334C190.919 92.0775 190.481 93.114 190.481 94.4429C190.481 95.8781 191.092 96.9411 192.314 97.6321C193.536 98.3232 194.812 98.6687 196.14 98.6687C197.309 98.6687 198.439 98.5092 199.528 98.1903C200.618 97.8713 201.587 97.4195 202.438 96.8348C203.288 96.2501 203.966 95.506 204.47 94.6024C204.975 93.6987 205.228 92.6357 205.228 91.4131V88.8617H202.278ZM245.632 78.4954C243.878 76.3161 241.566 75.2264 238.697 75.2264C237.687 75.2264 236.704 75.4656 235.747 75.944C234.791 76.4224 234.312 77.2463 234.312 78.4157C234.312 79.3725 234.804 80.0767 235.787 80.5285C236.77 80.9804 238.019 81.379 239.534 81.7245C241.048 82.07 242.669 82.4421 244.396 82.8407C246.123 83.2394 247.744 83.864 249.259 84.7144C250.773 85.5649 252.022 86.721 253.005 88.1827C253.989 89.6445 254.48 91.5979 254.48 94.043C254.48 96.5412 253.935 98.6009 252.846 100.222C251.757 101.843 250.362 103.146 248.661 104.129C246.96 105.112 245.047 105.803 242.921 106.202C240.796 106.601 238.697 106.8 236.624 106.8C233.914 106.8 231.177 106.415 228.413 105.644C225.65 104.873 223.312 103.504 221.399 101.538L228.653 93.4848C229.769 94.8669 231.004 95.9166 232.359 96.6342C233.714 97.3518 235.295 97.7106 237.102 97.7106C238.484 97.7106 239.733 97.5113 240.849 97.1126C241.965 96.714 242.523 95.9831 242.523 94.92C242.523 93.9101 242.031 93.1526 241.048 92.6477C240.065 92.1427 238.816 91.7175 237.302 91.372C235.787 91.0265 234.166 90.6544 232.439 90.2557C230.712 89.8571 229.091 89.2591 227.576 88.4618C226.062 87.6645 224.813 86.535 223.83 85.0732C222.847 83.6115 222.355 81.6581 222.355 79.213C222.355 76.9274 222.82 74.9607 223.75 73.3129C224.68 71.6651 225.902 70.3097 227.417 69.2466C228.932 68.1835 230.672 67.3995 232.638 66.8945C234.605 66.3896 236.597 66.1371 238.617 66.1371C241.168 66.1371 243.745 66.5092 246.349 67.2533C248.953 67.9975 251.159 69.3263 252.966 71.2399L245.632 78.4954ZM282.539 78.4954C280.785 76.3161 278.473 75.2264 275.603 75.2264C274.594 75.2264 273.611 75.4656 272.654 75.944C271.697 76.4224 271.219 77.2463 271.219 78.4157C271.219 79.3725 271.711 80.0767 272.694 80.5285C273.677 80.9804 274.926 81.379 276.44 81.7245C277.955 82.07 279.576 82.4421 281.303 82.8407C283.03 83.2394 284.651 83.864 286.166 84.7144C287.68 85.5649 288.929 86.721 289.912 88.1827C290.895 89.6445 291.387 91.5979 291.387 94.043C291.387 96.5412 290.842 98.6009 289.753 100.222C288.663 101.843 287.268 103.146 285.568 104.129C283.867 105.112 281.954 105.803 279.828 106.202C277.703 106.601 275.603 106.8 273.531 106.8C270.82 106.8 268.084 106.415 265.32 105.644C262.557 104.873 260.218 103.504 258.305 101.538L265.559 93.4848C266.675 94.8669 267.911 95.9166 269.266 96.6342C270.621 97.3518 272.202 97.7106 274.009 97.7106C275.391 97.7106 276.64 97.5113 277.756 97.1126C278.872 96.714 279.43 95.9831 279.43 94.92C279.43 93.9101 278.938 93.1526 277.955 92.6477C276.972 92.1427 275.723 91.7175 274.208 91.372C272.694 91.0265 271.073 90.6544 269.346 90.2557C267.619 89.8571 265.998 89.2591 264.483 88.4618C262.969 87.6645 261.72 86.535 260.737 85.0732C259.753 83.6115 259.262 81.6581 259.262 79.213C259.262 76.9274 259.727 74.9607 260.657 73.3129C261.587 71.6651 262.809 70.3097 264.324 69.2466C265.838 68.1835 267.579 67.3995 269.545 66.8945C271.511 66.3896 273.504 66.1371 275.524 66.1371C278.075 66.1371 280.652 66.5092 283.256 67.2533C285.86 67.9975 288.065 69.3263 289.872 71.2399L282.539 78.4954ZM298.638 67.0939H309.639V72.1967H309.798C310.276 71.5056 310.901 70.8014 311.671 70.0838C312.442 69.3662 313.345 68.7151 314.382 68.1304C315.418 67.5457 316.547 67.0673 317.769 66.6952C318.992 66.3231 320.294 66.1371 321.675 66.1371C324.545 66.1371 327.149 66.6288 329.488 67.6121C331.826 68.5955 333.832 69.9775 335.506 71.7581C337.18 73.5388 338.469 75.6517 339.372 78.0968C340.276 80.5419 340.727 83.2261 340.727 86.1496C340.727 88.8605 340.315 91.4517 339.492 93.9234C338.668 96.3951 337.499 98.5876 335.984 100.501C334.47 102.415 332.623 103.943 330.444 105.086C328.265 106.229 325.794 106.8 323.031 106.8C320.533 106.8 318.208 106.415 316.056 105.644C313.903 104.873 312.136 103.558 310.755 101.697H310.595V124.022H298.638V67.0939ZM309.64 86.469C309.64 89.3924 310.477 91.7578 312.151 93.565C313.825 95.3723 316.177 96.2759 319.206 96.2759C322.235 96.2759 324.587 95.3723 326.261 93.565C327.935 91.7578 328.772 89.3924 328.772 86.469C328.772 83.5455 327.935 81.1801 326.261 79.3729C324.587 77.5656 322.235 76.662 319.206 76.662C316.177 76.662 313.825 77.5656 312.151 79.3729C310.477 81.1801 309.64 83.5455 309.64 86.469ZM347.911 45.5682H359.868V105.845H347.911V45.5682ZM405.776 105.846H394.297V100.584H394.138C393.713 101.328 393.168 102.072 392.504 102.816C391.839 103.56 391.029 104.225 390.072 104.809C389.116 105.394 388.026 105.873 386.804 106.245C385.582 106.617 384.253 106.803 382.818 106.803C379.789 106.803 377.331 106.338 375.445 105.407C373.558 104.477 372.097 103.188 371.06 101.54C370.024 99.8927 369.333 97.9526 368.988 95.7201C368.642 93.4876 368.47 91.0691 368.47 88.4645V67.0966H380.427V86.0726C380.427 87.1889 380.467 88.3449 380.546 89.5409C380.626 90.7369 380.865 91.8398 381.264 92.8498C381.662 93.8597 382.273 94.6836 383.097 95.3214C383.921 95.9593 385.103 96.2782 386.645 96.2782C388.186 96.2782 389.435 95.9992 390.391 95.441C391.348 94.8829 392.078 94.1388 392.583 93.2086C393.088 92.2784 393.42 91.2286 393.58 90.0592C393.739 88.8898 393.819 87.6672 393.819 86.3915V67.0966H405.776V105.846ZM436.153 78.4954C434.399 76.3161 432.087 75.2264 429.217 75.2264C428.208 75.2264 427.225 75.4656 426.268 75.944C425.311 76.4224 424.833 77.2463 424.833 78.4157C424.833 79.3725 425.325 80.0767 426.308 80.5285C427.291 80.9804 428.54 81.379 430.054 81.7245C431.569 82.07 433.19 82.4421 434.917 82.8407C436.644 83.2394 438.265 83.864 439.78 84.7144C441.294 85.5649 442.543 86.721 443.526 88.1827C444.509 89.6445 445.001 91.5979 445.001 94.043C445.001 96.5412 444.456 98.6009 443.367 100.222C442.277 101.843 440.882 103.146 439.182 104.129C437.481 105.112 435.568 105.803 433.442 106.202C431.317 106.601 429.217 106.8 427.145 106.8C424.435 106.8 421.698 106.415 418.934 105.644C416.171 104.873 413.833 103.504 411.919 101.538L419.173 93.4848C420.289 94.8669 421.525 95.9166 422.88 96.6342C424.235 97.3518 425.816 97.7106 427.623 97.7106C429.005 97.7106 430.254 97.5113 431.37 97.1126C432.486 96.714 433.044 95.9831 433.044 94.92C433.044 93.9101 432.552 93.1526 431.569 92.6477C430.586 92.1427 429.337 91.7175 427.822 91.372C426.308 91.0265 424.687 90.6544 422.96 90.2557C421.233 89.8571 419.612 89.2591 418.097 88.4618C416.583 87.6645 415.334 86.535 414.351 85.0732C413.368 83.6115 412.876 81.6581 412.876 79.213C412.876 76.9274 413.341 74.9607 414.271 73.3129C415.201 71.6651 416.423 70.3097 417.938 69.2466C419.452 68.1835 421.193 67.3995 423.159 66.8945C425.125 66.3896 427.118 66.1371 429.138 66.1371C431.689 66.1371 434.266 66.5092 436.87 67.2533C439.474 67.9975 441.679 69.3263 443.486 71.2399L436.153 78.4954Z" fill="#2D2D45"/>
<path fill-rule="evenodd" clip-rule="evenodd" d="M21.035 96.0555L64.9655 52.3732V52.3732C65.832 51.5116 67.2415 51.5162 68.1138 52.3836L87.0661 71.2288V71.2288C89.6829 73.8308 89.6969 78.0356 87.0974 80.6204L43.1669 124.303V124.303C42.3004 125.164 40.8909 125.16 40.0186 124.292L21.0663 105.447V105.447C18.4495 102.845 18.4355 98.6403 21.035 96.0555Z" fill="url(#paint0_linear)"/>
<path fill-rule="evenodd" clip-rule="evenodd" d="M60.3964 94.6188L20.9123 55.3578V55.3578C18.2955 52.7558 18.2815 48.5511 20.881 45.9662L39.7084 27.2453C40.5749 26.3837 41.9844 26.3883 42.8567 27.2556L87.079 71.228C89.6958 73.83 89.7098 78.0347 87.1102 80.6195L68.2829 99.3405L62.0071 105.581C64.6066 102.996 64.5926 98.7913 61.9758 96.1893V96.1893L60.3964 94.6188Z" fill="url(#paint1_linear)"/>
<defs>
<linearGradient id="paint0_linear" x1="38.3075" y1="122.591" x2="75.2285" y2="85.4601" gradientUnits="userSpaceOnUse">
<stop stop-color="#00749B"/>
<stop offset="1" stop-color="#005077"/>
</linearGradient>
<linearGradient id="paint1_linear" x1="11.4673" y1="55.3267" x2="61.7206" y2="105.866" gradientUnits="userSpaceOnUse">
<stop stop-color="#00CAF2"/>
<stop offset="1" stop-color="#009AE0"/>
</linearGradient>
</defs>
</svg>
